<?xml version="1.0" standalone="no"?>
<!DOCTYPE svg PUBLIC "-//W3C//DTD SVG 20010904//EN"
 "http://www.w3.org/TR/2001/REC-SVG-20010904/DTD/svg10.dtd">
<svg version="1.0" xmlns="http://www.w3.org/2000/svg"
 width="457.000000pt" height="118.000000pt" viewBox="0 0 457.000000 118.000000"
 preserveAspectRatio="xMidYMid meet">

<g transform="translate(0.000000,118.000000) scale(0.100000,-0.100000)"
fill="#000000" stroke="none">
<path d="M0 590 l0 -590 2285 0 2285 0 0 590 0 590 -2285 0 -2285 0 0 -590z
m3271 158 c13 -18 26 -34 30 -36 3 -1 15 -9 25 -17 18 -14 18 -14 0 -15 -10 0
-35 18 -56 41 -21 23 -40 37 -43 32 -4 -6 -5 -34 -4 -63 l2 -52 114 -84 114
-84 74 0 c98 0 93 15 -18 56 -82 31 -85 33 -122 93 -39 65 -40 81 -4 81 22 0
57 -31 57 -50 0 -6 5 -10 10 -10 6 0 10 -6 10 -14 0 -8 3 -16 8 -18 4 -1 14
-16 22 -32 10 -19 32 -35 70 -50 66 -26 77 -54 34 -83 -24 -15 -55 -18 -217
-21 -134 -3 -187 0 -182 7 4 7 46 11 108 11 l102 0 -95 62 c-110 70 -105 66
-98 74 3 3 45 -20 92 -50 123 -80 139 -86 198 -85 l53 2 -57 7 c-51 6 -69 17
-188 104 -76 56 -138 95 -146 92 -21 -8 -17 -21 11 -36 14 -7 25 -17 25 -22 0
-14 -14 -9 -44 15 l-29 24 37 61 c39 65 62 92 76 92 5 0 19 -15 31 -32z
m-2086 -112 c41 -17 55 -42 55 -96 0 -71 -31 -109 -90 -110 -47 0 -77 23 -90
68 -17 65 13 132 65 145 11 2 21 5 23 6 1 0 18 -5 37 -13z m200 4 c17 0 55
-39 55 -57 0 -18 -47 -16 -54 3 -4 10 -15 14 -33 12 -27 -3 -28 -5 -28 -63 0
-58 1 -60 28 -63 18 -2 29 2 33 12 8 20 54 21 54 2 0 -25 -50 -56 -90 -56 -67
0 -106 75 -80 155 12 38 60 70 88 60 8 -3 20 -5 27 -5z m749 -4 c42 -18 56
-56 19 -56 -13 0 -31 7 -39 15 -8 8 -21 12 -29 9 -27 -11 -16 -32 24 -47 39
-16 71 -49 71 -74 0 -7 -9 -22 -20 -33 -41 -41 -150 -15 -150 35 0 20 46 20
54 0 7 -20 56 -20 56 0 0 8 -22 26 -49 40 -27 13 -52 34 -56 44 -9 30 11 59
48 70 17 5 33 10 35 10 1 1 18 -5 36 -13z m434 -23 c33 -36 32 -124 -3 -158
-24 -25 -73 -33 -110 -19 -38 15 -60 118 -34 165 14 27 67 49 99 42 14 -3 35
-16 48 -30z m365 5 c9 -11 17 -24 17 -29 0 -14 -43 -10 -63 6 -11 7 -25 11
-33 8 -25 -9 -15 -31 19 -42 104 -35 100 -131 -6 -131 -37 0 -87 34 -87 60 0
16 48 12 58 -6 5 -9 18 -14 32 -12 38 5 35 27 -7 44 -50 21 -73 42 -73 69 0
59 100 82 143 33z m-1925 6 c27 -18 30 -65 5 -89 -15 -16 -15 -20 5 -61 l22
-44 -30 0 c-25 0 -33 6 -47 35 -9 19 -23 35 -30 35 -8 0 -13 -13 -13 -35 0
-31 -3 -35 -25 -35 l-25 0 0 105 0 105 58 0 c36 0 66 -6 80 -16z m512 -26 l0
-43 28 42 c23 36 32 43 61 43 37 0 38 4 -16 -63 l-22 -28 34 -54 c19 -30 35
-57 35 -60 0 -3 -13 -5 -30 -5 -25 0 -33 7 -51 42 -23 44 -39 39 -39 -14 0
-24 -4 -28 -30 -28 l-30 0 0 105 0 105 30 0 c29 0 30 -2 30 -42z m280 22 c0
-17 -7 -20 -45 -20 -38 0 -45 -3 -45 -20 0 -17 7 -20 40 -20 33 0 40 -3 40
-20 0 -17 -7 -20 -40 -20 -36 0 -40 -2 -40 -25 0 -23 4 -25 45 -25 38 0 45 -3
45 -20 0 -18 -7 -20 -70 -20 l-70 0 0 105 0 105 70 0 c63 0 70 -2 70 -20z
m198 3 c-2 -12 -14 -19 -36 -21 l-32 -3 0 -85 c0 -83 0 -84 -25 -84 -25 0 -25
1 -25 85 l0 85 -30 0 c-23 0 -30 4 -30 20 0 19 7 20 91 20 81 0 90 -2 87 -17z
m252 -23 l0 -40 40 0 40 0 0 40 c0 36 3 40 25 40 l25 0 0 -105 0 -105 -25 0
c-23 0 -25 4 -25 45 l0 45 -40 0 -40 0 0 -45 c0 -41 -2 -45 -25 -45 l-25 0 0
105 0 105 25 0 c23 0 25 -4 25 -40z m520 20 c0 -17 -7 -20 -50 -20 -43 0 -50
-3 -50 -20 0 -17 7 -20 40 -20 33 0 40 -3 40 -20 0 -17 -7 -20 -40 -20 -36 0
-40 -2 -40 -25 0 -23 3 -25 50 -25 43 0 50 -3 50 -20 0 -18 -7 -20 -75 -20
l-75 0 0 105 0 105 75 0 c68 0 75 -2 75 -20z m430 -110 c0 -5 -20 -10 -45 -10
-25 0 -45 5 -45 10 0 6 20 10 45 10 25 0 45 -4 45 -10z m80 -40 c0 -6 -32 -10
-75 -10 -43 0 -75 4 -75 10 0 6 32 10 75 10 43 0 75 -4 75 -10z m-110 -40 c0
-5 -4 -10 -10 -10 -5 0 -10 5 -10 10 0 6 5 10 10 10 6 0 10 -4 10 -10z"/>
<path d="M3191 696 c-11 -13 -11 -20 -3 -28 15 -15 24 -5 20 23 -3 21 -4 21
-17 5z"/>
<path d="M3394 638 c31 -52 53 -78 66 -78 5 0 7 7 4 15 -4 8 -12 15 -20 15 -7
0 -11 6 -8 14 3 7 -2 16 -11 20 -9 3 -13 10 -10 16 3 5 1 10 -4 10 -6 0 -11 7
-11 15 0 8 -7 15 -16 15 -12 0 -10 -8 10 -42z"/>
<path d="M1116 584 c-10 -27 -7 -89 6 -102 31 -31 68 -1 68 53 0 14 -5 35 -10
46 -13 23 -55 25 -64 3z"/>
<path d="M2472 588 c-15 -15 -16 -72 -2 -99 12 -21 40 -25 58 -7 13 13 16 75
6 102 -7 19 -45 21 -62 4z"/>
<path d="M920 575 c0 -23 4 -26 28 -23 38 4 38 42 0 46 -24 3 -28 0 -28 -23z"/>
</g>
</svg>
